<?xml version="1.0" encoding="utf-8"?>
<!-- Generator: Adobe Illustrator 23.0.6, SVG Export Plug-In . SVG Version: 6.00 Build 0)  -->
<svg version="1.1" id="Layer_1" xmlns="http://www.w3.org/2000/svg" xmlns:xlink="http://www.w3.org/1999/xlink" x="0px" y="0px"
	 viewBox="0 0 347 347" style="enable-background:new 0 0 347 347;" xml:space="preserve">
<style type="text/css">
	.st0{fill:#FFFFFF;stroke:#FFFFFF;stroke-width:18;stroke-miterlimit:10;}
</style>
<path class="st0" d="M203.6,173.5L331.7,45.4c8.3-8.3,8.3-21.8,0-30.1c-8.3-8.3-21.8-8.3-30.1,0L173.5,143.4L45.4,15.2
	c-8.3-8.3-21.8-8.3-30.1,0c-8.3,8.3-8.3,21.8,0,30.1l128.1,128.1L15.3,301.6c-8.3,8.3-8.3,21.8,0,30.1c4.2,4.2,9.6,6.2,15.1,6.2
	s10.9-2.1,15.1-6.2l128.1-128.1l128.1,128.1c4.2,4.2,9.6,6.2,15.1,6.2c5.5,0,10.9-2.1,15.1-6.2c8.3-8.3,8.3-21.8,0-30.1L203.6,173.5
	z"/>
</svg>
